<?xml version="1.0" encoding="UTF-8"?>
<svg id="Layer_1" data-name="Layer 1" xmlns="http://www.w3.org/2000/svg" viewBox="0 0 351.03 388.63">
  <defs>
    <style>
      .cls-1 {
        fill: #ee3672;
      }

      .cls-2 {
        fill: #feea0e;
      }

      .cls-3 {
        fill: #39469d;
      }

      .cls-4 {
        stroke: #6abd45;
        stroke-width: 10.1px;
      }

      .cls-4, .cls-5 {
        fill: none;
        stroke-miterlimit: 10;
      }

      .cls-5 {
        stroke: #70cee9;
        stroke-width: 7px;
      }
    </style>
  </defs>
  <path class="cls-1" d="M260.2,212.43c-26.21,24.29-58.18,63.71-80.67,129.27-12.77-77.2-40.34-127.43-62.64-158.69C74.84,124.06,27.39,98.71,34.33,59.83c4.43-24.8,29.2-44.22,52.86-48.55,36.42-6.66,80.49,23.69,92.34,76.07,13.17-48.47,53.45-79.17,91.35-76.11,40.74,3.29,64.39,44.41,67.14,49.34,3.64,6.54,16,28.77,12.34,55.04-5.96,42.74-49.11,58.75-90.16,96.8Z"/>
  <path class="cls-3" d="M162.31,75.96c-2.55,2.84-22.79,24.61-57.21,24.61s-54.66-21.77-57.21-24.61c2.55-2.84,22.79-24.61,57.21-24.61s54.66,21.77,57.21,24.61Z"/>
  <path class="cls-3" d="M338.77,95c-3.07,3.8-27.47,32.93-68.97,32.93s-65.9-29.13-68.97-32.93c3.07-3.8,27.47-32.93,68.97-32.93s65.9,29.13,68.97,32.93Z"/>
  <path class="cls-2" d="M170.48,188.38c-6.29,2.29-13.05,4.75-17.54,10.9-6.38,8.73-5.78,21.6,0,24.31,3.99,1.87,7.07-2.69,18.52-3.35,8.72-.5,9.6,1.99,16.57,.84,9.19-1.52,10.17-6.28,16.57-5.87,7.14,.46,9.01,6.59,14.62,5.87,4.55-.58,7.69-5.17,8.77-8.38,3.28-9.76-8.37-19.05-9.74-20.12-5.66-4.39-11.68-5.82-15.59-6.71-15.24-3.46-28.05,1.02-32.16,2.52Z"/>
  <path class="cls-4" d="M154.79,385.33c22.25-25.77,44.5-51.55,66.74-77.32-14.31-18.69-28.62-37.38-42.93-56.07,15.36-22.47,30.71-44.93,46.07-67.4-28.8-15.54-57.6-31.08-86.4-46.62,33.46-19.36,66.91-38.72,100.37-58.08-26.16-25.4-52.31-50.81-78.47-76.21"/>
  <path class="cls-5" d="M81.76,95c-2.73,7.1-6.74,17.08-12.05,28.84-9.26,20.52-13.89,30.78-19.02,35.83-14.82,14.58-27.88,8.72-39.3,24.32-1.68,2.29-7.63,10.94-7.88,22.79-.36,17.71,12.17,35.08,28.04,41.16,23.8,9.12,49.1-9.49,60.6-24.63,16.58-21.81,13.4-48.1,10.98-68.18-3.38-27.95-14.26-48.72-21.37-60.14Z"/>
</svg>